<svg version="1.1" id="Layer_1" xmlns="http://www.w3.org/2000/svg" xmlns:xlink="http://www.w3.org/1999/xlink" x="0px" y="0px"
	 width="100%" viewBox="0 0 300 300" enable-background="new 0 0 300 300" xml:space="preserve">
<path fill="transparent" opacity="1.000000" stroke="none" 
	d="
M164.000000,301.000000 
	C110.666679,301.000000 57.833241,300.957855 5.000285,301.097351 
	C1.575169,301.106415 0.900214,300.424103 0.904390,296.999908 
	C1.023108,199.666748 1.023101,102.333366 0.904406,5.000198 
	C0.900231,1.576255 1.575740,0.900207 5.000033,0.904384 
	C102.333206,1.023108 199.666595,1.023098 296.999756,0.904413 
	C300.423584,0.900238 301.099823,1.575593 301.095642,4.999979 
	C300.976929,102.333153 300.976898,199.666534 301.095581,296.999695 
	C301.099731,300.423431 300.425934,301.109589 296.999847,301.098083 
	C252.833618,300.949829 208.666733,301.000000 164.000000,301.000000 
z"/>
<path fill="#000000" opacity="1.000000" stroke="none" 
	d="
M65.000000,207.000000 
	C65.000000,159.341248 65.059418,112.182281 64.895996,65.024086 
	C64.881721,60.905174 65.799232,59.170586 69.986320,59.995975 
	C70.146729,60.027596 70.318802,60.000053 70.485443,59.999992 
	C77.999825,59.997227 77.999832,59.997227 78.000008,52.506863 
	C78.000160,46.000153 78.000153,46.000153 84.502037,46.000004 
	C84.835312,45.999996 85.168594,46.000004 85.501869,45.999996 
	C91.999725,45.999851 91.999725,45.999851 92.000000,39.490105 
	C92.000275,33.000278 92.000275,33.000278 98.517120,33.000000 
	C104.999870,32.999722 104.999886,32.999722 105.000000,26.474140 
	C105.000099,20.641785 105.118378,14.805894 104.944077,8.978754 
	C104.870743,6.527056 105.677132,5.946118 108.034584,5.951273 
	C141.028900,6.023418 174.023468,6.025998 207.017761,5.947476 
	C209.452744,5.941682 210.104050,6.659338 210.052368,9.030577 
	C209.903503,15.859517 210.049805,22.694376 209.971558,29.525667 
	C209.946075,31.751369 209.979965,33.311245 213.042679,33.078945 
	C216.489883,32.817486 220.966599,31.885168 223.190216,33.593906 
	C225.591583,35.439232 223.914200,40.118778 223.920822,43.543442 
	C223.925797,46.121979 225.271057,46.022739 227.051758,46.023354 
	C230.190262,46.024437 234.477097,44.947754 236.186935,46.553883 
	C238.512421,48.738297 236.956528,53.132030 236.958878,56.559269 
	C237.012314,134.546158 236.955414,212.533188 237.113083,290.519806 
	C237.122360,295.098877 235.937393,296.120239 231.468964,296.106598 
	C177.645157,295.941895 123.820511,295.945557 69.996689,296.106476 
	C65.826584,296.118927 64.861237,295.125275 64.892082,290.984680 
	C65.099411,263.157715 65.000000,235.328491 65.000000,207.000000 
z"/>
<path fill="#FFFFFF" opacity="1.000000" stroke="none" 
	d="
M144.000000,112.000000 
	C144.000000,167.314484 143.951141,222.129105 144.099655,276.943176 
	C144.110657,281.002411 143.301956,282.177032 139.045685,282.116791 
	C120.056015,281.847961 101.059860,281.928589 82.067451,282.070679 
	C78.924240,282.094208 77.879913,281.439240 77.912941,278.056152 
	C78.095062,259.397675 78.070900,240.735977 77.930550,222.076782 
	C77.907051,218.950958 78.519341,217.753830 81.937691,217.912781 
	C88.421432,218.214249 94.932823,217.873093 101.425186,218.060287 
	C104.151840,218.138901 105.073006,217.491669 105.083153,214.564758 
	C105.115593,205.211182 105.256363,205.096191 114.438690,205.070770 
	C117.173256,205.063202 118.117722,204.468475 118.070854,201.551758 
	C117.894157,190.558380 117.913254,179.559296 118.061142,168.565063 
	C118.097931,165.830521 117.470543,164.482361 114.554985,164.996399 
	C114.393402,165.024887 114.222397,165.001892 114.055809,164.999756 
	C104.301880,164.874588 103.628990,163.935104 104.918343,154.042221 
	C105.230072,151.650421 106.523354,152.105499 107.953362,151.985489 
	C111.214912,151.711792 115.520744,153.497726 117.445572,151.203613 
	C119.025543,149.320511 118.185966,145.159058 117.923828,142.049210 
	C117.666687,138.998779 119.232903,139.000702 121.463844,138.962448 
	C131.000870,138.799026 131.000000,138.748337 131.000000,129.031219 
	C130.999985,120.200920 130.891693,111.368515 131.063660,102.541565 
	C131.117722,99.766815 130.416565,98.830513 127.527687,98.931572 
	C121.204269,99.152786 114.863419,98.862717 108.538612,99.063133 
	C105.756760,99.151283 104.932098,98.397255 104.920372,95.528336 
	C104.881416,85.999466 104.750267,86.000015 95.023697,85.999985 
	C90.358635,85.999969 85.688980,85.876892 81.030426,86.051018 
	C78.657150,86.139732 78.007019,85.440903 77.927597,83.021950 
	C77.598434,72.996704 77.498032,73.000000 87.484734,73.000000 
	C100.646873,72.999992 113.810539,72.892082 126.970078,73.077194 
	C130.188553,73.122467 131.224792,72.338501 131.081833,69.015419 
	C130.802811,62.529659 130.862503,56.019142 131.064163,49.527645 
	C131.151093,46.729267 130.369263,45.932957 127.517380,45.921444 
	C117.999451,45.883022 117.891998,45.752445 118.043312,36.013424 
	C118.125038,30.753111 115.758408,23.707577 119.038025,20.753607 
	C121.914398,18.162844 128.847504,20.020613 133.988907,20.010489 
	C148.983704,19.980957 163.979706,20.096756 178.972549,19.923042 
	C182.191833,19.885742 183.598541,20.678930 183.011902,23.983814 
	C182.925903,24.468374 182.999847,24.981352 183.000015,25.481180 
	C183.002747,32.966743 182.993408,33.200493 175.518524,32.901257 
	C171.788437,32.751934 170.767181,33.720200 170.896729,37.495266 
	C171.186996,45.953766 170.952896,46.183422 162.508057,45.898521 
	C158.758682,45.772030 157.792023,46.755306 157.897614,50.505451 
	C158.163544,59.949638 157.950562,60.166363 148.495773,59.896023 
	C144.722824,59.788136 143.847198,60.800831 143.902115,64.517433 
	C144.133499,80.175346 144.000000,95.838661 144.000000,112.000000 
z"/>
<path fill="#FFFFFF" opacity="1.000000" stroke="none" 
	d="
M212.186646,72.997902 
	C224.000000,73.000717 224.000000,73.000717 224.000000,84.169426 
	C224.000000,92.166321 223.869751,100.166458 224.068207,108.158424 
	C224.141052,111.091965 223.593231,112.237007 220.326111,112.087624 
	C213.842194,111.791176 207.330139,112.149925 200.839951,111.932373 
	C197.900970,111.833862 196.645767,112.404221 196.916092,115.678253 
	C197.185379,118.939735 197.986542,123.243774 196.329636,125.282677 
	C194.551422,127.470825 190.100586,125.907082 186.825684,125.939720 
	C184.751343,125.960388 183.618835,126.390335 183.996796,128.681656 
	C184.023544,128.843842 184.005478,129.014481 183.999390,129.180862 
	C183.884827,132.306274 184.917786,136.367859 183.341125,138.302551 
	C181.650726,140.376831 177.421310,138.975937 174.318176,138.930267 
	C171.816925,138.893463 170.916061,139.453995 170.933258,142.191772 
	C171.057831,162.016632 171.038467,181.842804 170.951462,201.668076 
	C170.940628,204.139786 171.398254,205.246185 174.181259,205.070969 
	C177.287521,204.875412 181.362564,204.080246 183.300247,205.655914 
	C185.378204,207.345688 183.972794,211.574783 183.930634,214.677795 
	C183.896774,217.170059 184.448700,218.043503 187.184525,218.083298 
	C196.856552,218.224045 197.071091,218.350769 196.889893,208.814178 
	C196.820663,205.171524 198.278564,204.911667 201.194931,204.942398 
	C209.943176,205.034561 210.126190,204.927582 209.910187,196.305176 
	C209.824127,192.869980 210.613739,191.822388 214.206268,191.900879 
	C223.995865,192.114716 224.000000,191.925430 224.000000,201.708435 
	C224.000000,227.031952 223.930664,252.355881 224.082458,277.678497 
	C224.102829,281.075775 223.429749,282.179810 219.810211,282.100433 
	C210.004242,281.885406 210.000031,282.077911 210.000000,272.308044 
	C209.999985,267.643188 209.871521,262.973389 210.051361,258.315460 
	C210.148453,255.800415 209.531738,254.503891 206.804276,254.996338 
	C206.642944,255.025467 206.471710,255.002640 206.305161,254.999664 
	C197.139069,254.836212 196.911621,254.831131 197.110779,245.805252 
	C197.191589,242.142609 195.696991,241.913879 192.795807,241.943710 
	C184.057693,242.033615 183.872345,241.929245 184.090775,233.295959 
	C184.178085,229.844742 183.371445,228.712036 179.780960,228.910095 
	C173.801483,229.239929 167.783340,228.825241 161.795929,229.073120 
	C158.767151,229.198517 157.849274,228.454773 157.914642,225.281403 
	C158.137619,214.456863 158.000000,203.624893 158.000000,192.795761 
	C158.000000,154.643890 158.068817,116.491714 157.901794,78.340569 
	C157.883530,74.169243 158.554413,72.594925 163.174530,72.870621 
	C170.975784,73.336136 171.251953,72.982117 170.898788,65.334343 
	C170.704086,61.118317 171.587051,59.601044 176.183319,59.872025 
	C183.979843,60.331684 184.342529,59.973415 183.879349,52.327221 
	C183.571182,47.240063 184.866089,45.461178 190.195374,45.873184 
	C196.969208,46.396866 196.999893,45.999779 197.000015,52.690651 
	C197.000031,54.190071 197.115936,55.700661 196.972549,57.186230 
	C196.768875,59.296406 197.416901,60.134583 199.699051,60.058228 
	C202.981796,59.948399 207.277573,59.024914 209.296539,60.687920 
	C211.459763,62.469769 209.743790,66.923676 210.004654,70.198334 
	C210.100754,71.404747 209.465897,73.083511 212.186646,72.997902 
z"/>
</svg>